<?xml version="1.0" standalone="no"?><!-- Generator: Gravit.io --><svg xmlns="http://www.w3.org/2000/svg" xmlns:xlink="http://www.w3.org/1999/xlink" style="isolation:isolate" width="86" height="21"><path d=" M 23.492226563628 10.508601311038973 L 23.302997720770776 10.31937246818174 C 23.285795098692848 10.302169846103808 21.737559111679197 8.90875745779151 19.69044708440559 8.61631288246673 C 20.877428007782726 6.982063785063431 20.963441118172373 4.969357001945667 20.963441118172373 4.9349517577898325 L 20.9806437402503 4.659709804542956 L 20.72260440908136 4.676912426620888 C 18.50346616102846 4.848938647400175 16.886419685703093 5.588651396751132 15.905870227261115 6.844442808440007 C 15.097346989598428 7.8766001331157725 14.925320768819134 9.011973190259113 14.908118146741206 9.75168593961007 C 14.856510280507418 10.26776460194796 14.856510280507418 10.904261618831356 14.925320768819134 11.575163879870601 C 14.942523390897062 11.833203211039546 14.994131257130853 12.142850408442257 15.0801443675205 12.45249760584501 C 15.097346989598428 12.538510716234654 15.11454961167636 12.607321204546366 15.14895485583222 12.69333431493601 L 15.14895485583222 12.676131692858078 C 15.303778454533585 13.15780511104009 15.544615163624595 13.656681151300063 15.905870227261115 14.13835456948209 C 16.886419685703096 15.394145981170922 18.50346616102846 16.116656108443976 20.722604409081363 16.305884951301195 L 20.980643740250304 16.323087573379127 L 20.963441118172376 16.047845620132264 C 20.963441118172376 16.013440375976387 20.87742800778273 14.121151947404144 19.77646019479524 12.504105472078791 C 20.911833251938585 12.297674007143627 22.098814175315717 11.695582234416094 23.28579509869285 10.68062753181826 L 23.492226563628 10.508601311038973 Z  M 16.26712529089763 7.154090005842718 C 17.127256394794102 6.070324814933173 18.53787140518432 5.399422553893913 20.464565077912415 5.210193711036709 C 20.412957211678627 5.674664507140804 20.240930990899333 6.672416587660706 19.74205495063938 7.652966046102691 C 19.570028729860084 7.997018487661279 19.36359726492493 8.306665685064004 19.139963177911845 8.58190763831088 C 17.952982254534714 8.5302997720771 16.645582976612076 8.891554835713606 15.372588942845297 10.078535759090755 C 15.35538632076737 9.459241364285262 15.441399431157016 8.22065257467436 16.26712529089763 7.154090005842718 Z  M 18.709897625963613 9.046378434414962 C 17.97018487661265 9.734483317532138 17.041243284404455 10.130143625324507 15.905870227261115 10.233359357792096 C 16.766001331157586 9.493646608441125 17.694942923365776 9.097986300648756 18.709897625963613 9.046378434414962 Z  M 19.74205495063938 13.347033953897323 C 20.258133612977264 14.327583412339308 20.41295721167863 15.32533549285921 20.481767699990346 15.807008911041223 C 18.555074027262247 15.600577446106072 17.144459016872034 14.946877807144759 16.284327912975563 13.863112616235213 C 15.475804675312876 12.830955291559448 15.3725889428453 11.626771746104382 15.3725889428453 10.990274729220985 C 15.837059738949396 11.48915076948093 16.852014441547233 12.366484495455339 18.348642562327097 12.555713338312572 C 18.53787140518432 12.572915960390503 18.727100248041545 12.590118582468435 18.916329090898767 12.590118582468435 C 19.019544823366342 12.590118582468435 19.13996317791185 12.590118582468435 19.243178910379427 12.572915960390503 C 19.43240775323665 12.813752669481502 19.587231351938012 13.071792000650447 19.74205495063938 13.347033953897323 Z  M 15.819857116871464 10.766640642207904 C 17.058445906482387 10.869856374675493 18.073400609080224 11.317124548701656 18.86472122466498 12.125647786364325 C 18.727100248041545 12.125647786364325 18.57227664934018 12.108445164286394 18.434655672716744 12.091242542208462 C 17.17886426102789 11.936418943507121 16.284327912975563 11.231111438312013 15.819857116871464 10.766640642207904 Z  M 19.449610375314577 12.091242542208477 C 18.881923846742907 11.4031376590913 18.107805853236083 10.818248508441712 17.024040662326527 10.508601311038973 C 18.021792742846436 10.21615673571415 18.778708114275332 9.682875451298358 19.329192020769074 9.063581056492893 C 19.707649706483522 9.097986300648756 20.1033100142759 9.166796788960482 20.498970322068278 9.304417765583906 C 21.54833026882197 9.631267585064563 22.391258750640517 10.233359357792096 22.752513814277034 10.525803933116904 C 21.634343379211618 11.420340281169246 20.516172944146206 11.953621565585038 19.449610375314577 12.091242542208477 Z " fill-rule="evenodd" fill="rgb(179,207,100)" stroke-width="1.3577133249264397" stroke="rgba(0,0,0,0)" stroke-linejoin="miter" stroke-linecap="butt"/><path d=" M 10.03977609868717 14.13835456948209 C 10.418233784401618 13.656681151300063 10.659070493492631 13.15780511104009 10.796691470116066 12.676131692858078 L 10.796691470116066 12.69333431493601 C 10.796691470116066 12.69333431493601 10.813894092193994 12.658929070780147 10.831096714271926 12.572915960390503 C 10.985920312973288 12.074039920130545 11.03752817920708 11.60956912402645 11.03752817920708 11.231111438312013 C 11.071933423362939 10.74943802013 11.089136045440867 10.16454886948037 11.020325557129148 9.545254474674934 C 10.96871769089536 8.805541725323977 10.762286225960207 7.773384400648212 10.022573476609242 6.844442808440007 C 9.042024018167261 5.58865139675116 7.424977542841893 4.866141269478106 5.205839294788994 4.676912426620888 L 4.947799963620053 4.659709804542956 L 4.965002585697983 4.9349517577898325 C 4.965002585697983 4.969357001945696 5.068218318165559 6.9648611629855 6.237996619464761 8.61631288246673 C 4.190884592191157 8.908757457791538 2.6598512272554355 10.302169846103808 2.625445983099577 10.31937246818174 L 2.453419762320281 10.508601311038973 L 2.659851227255434 10.68062753181826 C 3.8468321506325664 11.695582234416094 5.033813074009698 12.314876629221558 6.169186131153042 12.504105472078791 C 5.068218318165558 14.121151947404144 4.98220520777591 16.013440375976387 4.98220520777591 16.047845620132264 L 4.965002585697981 16.323087573379127 L 5.223041916866922 16.305884951301195 C 7.442180164919822 16.133858730521908 9.07642926232312 15.411348603248854 10.03977609868717 14.13835456948209 Z  M 6.203591375308902 7.6529660461026765 C 5.687512712971018 6.672416587660692 5.532689114269653 5.67466450714079 5.4638786259579355 5.192991088958763 C 7.390572298686034 5.399422553893928 8.801187309076248 6.053122192855241 9.661318412972722 7.136887383764787 C 10.504246894791265 8.20344995259643 10.57305738310298 9.44203874220733 10.555854761025053 10.061333137012795 C 9.282860727258274 8.874352213635675 7.9754614493356355 8.51309714999914 6.788480525958503 8.56470501623292 C 6.5820490610233495 8.306665685064004 6.375617596088196 7.997018487661265 6.203591375308902 7.6529660461026765 Z  M 10.03977609868717 10.233359357792096 C 8.921605663621754 10.130143625324507 7.9754614493356355 9.734483317532138 7.2357486999846685 9.046378434414962 C 8.233500780504578 9.097986300648756 9.179644994790698 9.493646608441125 10.03977609868717 10.233359357792096 Z  M 3.175929889593318 10.508601311038973 C 3.5371849532298363 10.21615673571415 4.380113435048379 9.631267585064563 5.429473381802076 9.287215143505975 C 5.825133689594454 9.166796788960454 6.220793997386831 9.08078367857081 6.599251683101279 9.046378434414962 C 7.149735589595021 9.665672829220426 7.906650961023918 10.21615673571415 8.904403041543826 10.491398688961027 C 7.8378404727122 10.801045886363752 7.0465198571274446 11.385935037013368 6.478833328555773 12.074039920130545 C 5.429473381802076 11.953621565585038 4.311302946736662 11.420340281169246 3.175929889593318 10.508601311038973 Z  M 10.125789209076817 10.766640642207904 C 9.661318412972722 11.231111438312013 8.766782064920392 11.936418943507107 7.528193275309469 12.091242542208477 C 7.390572298686034 12.108445164286422 7.2357486999846685 12.108445164286422 7.098127723361233 12.125647786364354 C 7.872245716868059 11.317124548701656 8.887200419465895 10.869856374675493 10.125789209076817 10.766640642207904 Z  M 5.481081248035865 15.807008911041251 C 5.532689114269653 15.342538114937142 5.704715335048948 14.34478603441724 6.203591375308902 13.364236575975255 C 6.358414974010266 13.071792000650447 6.513238572711632 12.813752669481502 6.685264793490926 12.572915960390503 C 6.788480525958503 12.572915960390503 6.90889888050401 12.590118582468435 7.012114612971586 12.590118582468435 C 7.20134345582881 12.590118582468435 7.390572298686034 12.572915960390503 7.579801141543258 12.555713338312572 C 9.07642926232312 12.366484495455339 10.091383964920958 11.48915076948093 10.555854761025053 10.990274729220985 C 10.573057383102984 11.626771746104382 10.469841650635406 12.813752669481502 9.644115790894793 13.863112616235213 C 8.81838993115418 14.946877807144773 7.407774920763964 15.600577446106087 5.481081248035865 15.807008911041251 Z " fill-rule="evenodd" fill="rgb(179,207,100)" stroke-width="1.3577133249264397" stroke="rgba(0,0,0,0)" stroke-linejoin="miter" stroke-linecap="butt"/><path d=" M 14.581268327260545 13.828707372079364 C 14.495255216870898 13.519060174676639 13.617921490896496 10.525803933116904 14.581268327260545 7.154090005842747 C 15.71664138440389 4.040415409737506 18.967936957132554 2.560989911035577 18.967936957132554 2.560989911035577 C 18.641087137651894 1.7696692954508109 17.763753411677495 1.5460352084377433 16.86921706362516 1.5460352084377433 C 15.579020407780451 1.5460352084377433 14.220013263624026 2.0105060045418384 14.220013263624026 2.0105060045418384 C 13.910366066221297 0.5826883720737044 12.964221851935175 0.3418516629826769 12.964221851935175 0.3418516629826769 C 12.964221851935175 0.3418516629826769 12.035280259726985 0.5826883720736902 11.708430440246325 2.0105060045418384 C 11.708430440246325 2.0105060045418384 10.349423296089899 1.5460352084377433 9.05922664024519 1.5460352084377433 C 8.14748767011493 1.5460352084377433 7.287356566218457 1.7696692954508109 6.9605067467377975 2.560989911035577 C 6.9605067467377975 2.560989911035577 10.263410185700252 4.057618031815437 11.381580620765668 7.222900494154459 C 11.501998975311174 7.584155557790979 12.310522212973858 10.21615673571418 11.364377998687736 13.828707372079364 C 10.229004941544392 16.959584590262537 6.977709368815726 18.43901008896445 6.977709368815726 18.43901008896445 C 7.304559188296386 19.230330704549203 8.181892914270788 19.453964791562285 9.07642926232312 19.453964791562285 C 10.366625918167829 19.453964791562285 11.725633062324256 18.989493995458176 11.725633062324256 18.989493995458176 C 12.035280259726985 20.41731162792631 12.981424474013107 20.658148337017337 12.981424474013107 20.658148337017337 C 12.981424474013107 20.658148337017337 13.910366066221297 20.41731162792634 14.237215885701957 18.989493995458176 C 14.237215885701957 18.989493995458176 15.596223029858383 19.453964791562285 16.886419685703093 19.453964791562285 C 17.798158655833355 19.453964791562285 18.658289759729826 19.230330704549203 18.985139579210486 18.43901008896445 C 18.985139579210482 18.43901008896445 15.71664138440389 16.95958459026251 14.581268327260545 13.828707372079364 Z  M 16.886419685703093 18.989493995458204 C 15.699438762325958 18.989493995458204 14.409242106481251 18.559428443509958 14.392039484403323 18.542225821432027 L 13.893163444143365 18.37019960065274 L 13.772745089597858 18.886278262990615 C 13.583516246740636 19.694801500653313 13.18785593894826 20.02165132013397 12.981424474013107 20.142069674679462 C 12.774993009077953 20.02165132013394 12.379332701285573 19.71200412273123 12.190103858428351 18.886278262990615 L 12.069685503882845 18.37019960065274 L 11.57080946362289 18.542225821432027 C 11.553606841544958 18.542225821432027 10.263410185700252 18.97229137338026 9.076429262323119 18.97229137338026 C 8.4227296233618 18.97229137338026 7.958258827257705 18.851873018834752 7.665814251932904 18.593833687665807 C 8.663566332452813 18.02614715909415 10.88270458050571 16.529519038314277 11.811646172713903 13.98353097078072 L 11.811646172713903 13.966328348702788 L 11.811646172713903 13.949125726624857 C 12.774993009077953 10.250561979870028 11.983672393493197 7.566952935713019 11.811646172713903 7.068076895453075 C 10.899907202583641 4.470480961685723 8.663566332452813 2.9566502188279458 7.648611629854974 2.3889636902562614 C 7.941056205179775 2.148126981165248 8.40552700128387 2.0277086266197273 9.04202401816726 2.0277086266197273 C 10.229004941544392 2.0277086266197273 11.519201597389099 2.4577741785679734 11.53640421946703 2.474976800645905 L 12.035280259726985 2.647003021425192 L 12.155698614272492 2.1309243590873166 C 12.327724835051786 1.322401121424619 12.740587764922093 0.9955513019439621 12.947019229857247 0.8751329473984697 C 13.1534506947924 0.9955513019439906 13.549111002584777 1.3051984993467016 13.738339845442002 2.1309243590873166 L 13.85875819998751 2.647003021425192 L 14.357634240247464 2.474976800645905 C 14.374836862325392 2.474976800645905 15.64783089609217 2.044911248697673 16.852014441547233 2.044911248697673 C 17.50571408050855 2.044911248697673 17.97018487661265 2.1653296032431797 18.26262945193745 2.4233689344121245 C 17.26487737141754 2.9910554629837804 15.062941745442572 4.487683583763655 14.134000153234378 7.016469029219294 L 14.134000153234378 7.033671651297226 L 14.134000153234378 7.0508742733751575 C 13.136248072714473 10.543006555194836 14.030784420766803 13.656681151300063 14.134000153234378 14.000733592858651 L 14.134000153234378 14.017936214936583 L 14.134000153234378 14.035138837014529 C 15.04573912336464 16.598329526626003 17.28207999349547 18.094957647405877 18.279832074015378 18.662644175977547 C 18.00459012076851 18.869075640912683 17.522916702586482 18.989493995458204 16.886419685703093 18.989493995458204 Z " fill-rule="evenodd" fill="rgb(179,207,100)" stroke-width="1.3577133249264397" stroke="rgba(0,0,0,0)" stroke-linejoin="miter" stroke-linecap="butt"/><path d=" M 27.035966711681468 15.015688295456485 L 26.657509025967023 15.015688295456485 L 26.657509025967023 6.001514326621461 L 27.035966711681468 6.001514326621461 L 27.035966711681468 15.015688295456485 Z " fill="rgb(255,255,255)" stroke-width="1.3577133249264397" stroke="rgba(0,0,0,0)" stroke-linejoin="miter" stroke-linecap="butt"/><path d=" M 30.252857040254273 15.015688295456485 L 29.994817709085332 15.015688295456485 L 29.994817709085332 6.001514326621461 L 30.37327539479978 6.001514326621461 L 36.49740885454266 14.49960963311861 L 36.56621934285438 14.49960963311861 L 36.56621934285438 6.001514326621461 L 36.824258674023326 6.001514326621461 L 36.824258674023326 15.015688295456485 L 36.445800988308875 15.015688295456485 L 30.321667528565992 6.5175929889593505 L 30.252857040254273 6.5175929889593505 L 30.252857040254273 15.015688295456485 Z " fill="rgb(255,255,255)" stroke-width="1.3577133249264397" stroke="rgba(0,0,0,0)" stroke-linejoin="miter" stroke-linecap="butt"/><path d=" M 47.266250275326506 13.278223465585612 C 47.266250275326506 13.278223465585612 46.234092950650734 15.27372762662543 43.5848891506496 15.27372762662543 C 41.0733063272719 15.27372762662543 39.1466126545438 13.347033953897323 39.1466126545438 10.508601311038973 C 39.1466126545438 7.670168668180608 41.073306327271894 5.743474995452502 43.5848891506496 5.743474995452502 C 45.976053619481796 5.743474995452502 47.059818810391356 7.618560801946799 47.059818810391356 7.618560801946799 L 46.87058996753412 7.756181778570237 C 46.87058996753412 7.756181778570237 45.83843264285836 6.01871694869935 43.5848891506496 6.01871694869935 C 41.331345658440846 6.01871694869935 39.52507034025825 7.824992266881949 39.52507034025825 10.525803933116876 C 39.52507034025825 13.226615599351817 41.331345658440846 15.032890917534402 43.5848891506496 15.032890917534402 C 46.0964719740273 15.032890917534402 47.059818810391356 13.15780511104009 47.059818810391356 13.15780511104009 L 47.266250275326506 13.278223465585612 Z " fill="rgb(255,255,255)" stroke-width="1.3577133249264397" stroke="rgba(0,0,0,0)" stroke-linejoin="miter" stroke-linecap="butt"/><path d=" M 54.37093319351137 11.936418943507121 L 52.117389701302606 6.638011343504843 L 52.06578183506882 6.638011343504843 L 49.81223834286006 11.936418943507121 L 49.58860425584698 12.43529498376708 L 48.4876364428595 15.015688295456485 L 48.16078662337883 15.015688295456485 L 52.03137659091296 6.001514326621461 L 52.2894159220819 6.001514326621461 L 56.16000588961603 15.015688295456485 L 55.71273771558987 15.015688295456485 L 54.37093319351137 11.936418943507121 Z " fill="rgb(255,255,255)" stroke-width="1.3577133249264397" stroke="rgba(0,0,0,0)" stroke-linejoin="miter" stroke-linecap="butt"/><path d=" M 58.413549381824794 15.015688295456485 L 58.15551005065585 15.015688295456485 L 58.15551005065585 6.001514326621461 L 58.53396773637029 6.001514326621461 L 64.6581011961132 14.49960963311861 L 64.7269116844249 14.49960963311861 L 64.7269116844249 6.001514326621461 L 64.98495101559385 6.001514326621461 L 64.98495101559385 15.015688295456485 L 64.6064933298794 15.015688295456485 L 58.482359870136506 6.5175929889593505 L 58.413549381824794 6.5175929889593505 L 58.413549381824794 15.015688295456485 Z " fill="rgb(255,255,255)" stroke-width="1.3577133249264397" stroke="rgba(0,0,0,0)" stroke-linejoin="miter" stroke-linecap="butt"/><path d=" M 70.07692715066096 6.259553657790406 L 66.72241584546472 6.259553657790406 L 66.72241584546472 6.001514326621461 L 73.80989614157166 6.001514326621461 L 73.74108565325994 6.259553657790406 L 70.4553848363754 6.259553657790406 L 70.4553848363754 15.015688295456485 L 70.07692715066096 15.015688295456485 L 70.07692715066096 6.259553657790406 Z " fill="rgb(255,255,255)" stroke-width="1.3577133249264397" stroke="rgba(0,0,0,0)" stroke-linejoin="miter" stroke-linecap="butt"/><path d=" M 79.10830374157392 5.743474995452516 C 81.61988656495163 5.743474995452516 83.54658023767972 7.670168668180622 83.54658023767972 10.508601311038987 C 83.54658023767972 13.347033953897352 81.61988656495163 15.273727626625458 79.10830374157392 15.273727626625458 C 76.59672091819623 15.273727626625458 74.67002724546812 13.347033953897352 74.67002724546812 10.508601311038987 C 74.65282462339019 7.670168668180608 76.59672091819623 5.743474995452516 79.10830374157392 5.743474995452516 Z  M 79.10830374157392 6.001514326621461 C 76.85476024936516 6.001514326621461 75.04848493118257 7.8077896448040605 75.04848493118257 10.508601311038987 C 75.04848493118257 13.209412977273914 76.85476024936516 15.015688295456513 79.10830374157392 15.015688295456513 C 81.36184723378268 15.015688295456513 83.16812255196528 13.209412977273914 83.16812255196528 10.508601311038987 C 83.16812255196528 7.8077896448040605 81.36184723378268 6.001514326621461 79.10830374157392 6.001514326621461 Z " fill-rule="evenodd" fill="rgb(255,255,255)" stroke-width="1.3577133249264397" stroke="rgba(0,0,0,0)" stroke-linejoin="miter" stroke-linecap="butt"/></svg>